<?xml version="1.0" encoding="UTF-8"?>
<svg width="114px" height="114px" viewBox="0 0 114 114" version="1.1" xmlns="http://www.w3.org/2000/svg" xmlns:xlink="http://www.w3.org/1999/xlink">
    <title>facebook</title>
    <g id="Welcome" stroke="none" stroke-width="1" fill="none" fill-rule="evenodd">
        <g id="Artboard" transform="translate(-46.000000, -18.000000)" fill="#E4017E">
            <g id="facebook-round-line-copy-2" transform="translate(46.000000, 18.000000)">
                <path d="M57,0 C72.7288542,0 86.9874025,6.39412118 97.3137373,16.6862627 C107.640072,27.0125975 114,41.2369526 114,57 C114,72.7288542 107.605879,86.9874025 97.3137373,97.3137373 C86.9874025,107.640072 72.7630474,114 57,114 C41.2711458,114 27.0125975,107.605879 16.6862627,97.3137373 C6.35992801,86.9874025 0,72.7630474 0,57 C0,41.2711458 6.39412118,27.0125975 16.6862627,16.6862627 C27.0125975,6.35992801 41.2369526,0 57,0 Z M63.1889622,38.8776245 L73.4811038,38.8776245 L73.4811038,26.5338932 L63.1889622,26.5338932 C55.2561488,26.5338932 48.7936413,32.9964007 48.7936413,40.9292142 L48.7936413,47.1181764 L40.5530894,47.1181764 L40.5530894,59.4619076 L48.7936413,59.4619076 L48.7936413,92.389922 L61.1373725,92.389922 L61.1373725,59.4619076 L71.4295141,59.4619076 L73.4811038,47.1181764 L61.1373725,47.1181764 L61.1373725,40.9292142 C61.1373725,39.8008398 62.094781,38.8776245 63.1889622,38.8776245 Z M94.4073185,19.6268746 C84.8332334,10.0527894 71.6346731,4.13737253 57.0341932,4.13737253 C42.4337133,4.13737253 29.2009598,10.0527894 19.6610678,19.6268746 C10.0869826,29.2009598 4.17156569,42.3995201 4.17156569,57 C4.17156569,71.6004799 10.0869826,84.8332334 19.6610678,94.3731254 C29.235153,103.947211 42.4337133,109.862627 57.0341932,109.862627 C71.6346731,109.862627 84.8674265,103.947211 94.4073185,94.3731254 C103.981404,84.7990402 109.896821,71.6004799 109.896821,57 C109.896821,42.3995201 103.981404,29.1667666 94.4073185,19.6268746 Z" id="Shape"></path>
            </g>
        </g>
    </g>
</svg>