<?xml version="1.0" encoding="UTF-8"?>
<svg width="114px" height="114px" viewBox="0 0 114 114" version="1.1" xmlns="http://www.w3.org/2000/svg" xmlns:xlink="http://www.w3.org/1999/xlink">
    <title>Instagram</title>
    <g id="Welcome" stroke="none" stroke-width="1" fill="none" fill-rule="evenodd">
        <g id="Artboard" transform="translate(-103.000000, -156.000000)" fill="#E4017E">
            <g id="instagram-round-line-copy-2" transform="translate(103.000000, 156.000000)">
                <path d="M56.7919708,39.9416058 C66.5584578,39.9416058 74.4744526,47.8576006 74.4744526,57.6240876 C74.4744526,67.3905746 66.5584578,75.3065693 56.7919708,75.3065693 C47.0254838,75.3065693 39.1094891,67.3905746 39.1094891,57.6240876 C39.1094891,47.8576006 47.0254838,39.9416058 56.7919708,39.9416058 Z M43.6247605,25.7956204 L70.3752395,25.7956204 C80.4238168,25.7956204 88.620438,33.8869092 88.620438,43.7193614 L88.620438,70.2806386 C88.620438,80.1472312 80.4238168,88.2043796 70.3752395,88.2043796 L43.6247605,88.2043796 C33.5761832,88.2043796 25.379562,80.1472312 25.379562,70.2806386 L25.379562,43.7193614 C25.379562,33.8527688 33.6104786,25.7956204 43.6247605,25.7956204 Z M74.0583942,37.4452555 C75.6532847,37.4452555 76.9708029,38.7281022 76.9708029,40.3576642 C76.9708029,41.9525547 75.6879562,43.270073 74.0583942,43.270073 C72.4635036,43.270073 71.1459854,41.9872263 71.1459854,40.3576642 C71.1459854,38.7627737 72.4288321,37.4452555 74.0583942,37.4452555 Z M45.6209918,30.7883212 L67.9629498,30.7883212 C76.3583175,30.7883212 83.2116788,37.6074157 83.2116788,45.9685166 L83.2116788,68.4475418 C83.2116788,76.8086427 76.3583175,83.6277372 67.9629498,83.6277372 L45.6209918,83.6277372 C37.2256241,83.6277372 30.3722628,76.8086427 30.3722628,68.4475418 L30.3722628,45.9685166 C30.3722628,37.6074157 37.2256241,30.7883212 45.6209918,30.7883212 Z M57,0 C72.7288542,0 86.9874025,6.39412118 97.3137373,16.6862627 C107.640072,27.0125975 114,41.2369526 114,57 C114,72.7288542 107.605879,86.9874025 97.3137373,97.3137373 C86.9874025,107.640072 72.7630474,114 57,114 C41.2711458,114 27.0125975,107.605879 16.6862627,97.3137373 C6.35992801,86.9874025 0,72.7630474 0,57 C0,41.2711458 6.39412118,27.0125975 16.6862627,16.6862627 C27.0125975,6.35992801 41.2369526,0 57,0 Z M94.3567152,19.6432848 C84.7868339,10.0734035 71.594069,4.16058394 57,4.16058394 C42.405931,4.16058394 29.1789879,10.0734035 19.6432848,19.6432848 C10.0734035,29.2131661 4.16058394,42.405931 4.16058394,57 C4.16058394,71.594069 10.0734035,84.8210121 19.6432848,94.3567152 C29.2131661,103.926597 42.405931,109.839416 57,109.839416 C71.594069,109.839416 84.8210121,103.926597 94.3567152,94.3567152 C103.926597,84.7868339 109.839416,71.594069 109.839416,57 C109.839416,42.405931 103.926597,29.1789879 94.3567152,19.6432848 Z M57,46.1824818 C63.4226727,46.1824818 68.649635,51.4094441 68.649635,57.8321168 C68.649635,64.2547895 63.4226727,69.4817518 57,69.4817518 C50.5431642,69.4817518 45.350365,64.2547895 45.350365,57.8321168 C45.350365,51.4094441 50.5773273,46.1824818 57,46.1824818 Z" id="Shape"></path>
            </g>
        </g>
    </g>
</svg>