<?xml version="1.0" encoding="UTF-8"?>
<svg width="114px" height="114px" viewBox="0 0 114 114" version="1.1" xmlns="http://www.w3.org/2000/svg" xmlns:xlink="http://www.w3.org/1999/xlink">
    <title>twitter-round-line copy 2</title>
    <g id="Welcome" stroke="none" stroke-width="1" fill="none" fill-rule="evenodd">
        <g id="Artboard" transform="translate(-262.000000, -75.000000)" fill="#E4017E">
            <g id="twitter-round-line-copy-2" transform="translate(262.000000, 75.000000)">
                <path d="M57,0 C72.7288542,0 86.9874025,6.39412118 97.3137373,16.6862627 C107.640072,27.0125975 114,41.2369526 114,57 C114,72.7288542 107.605879,86.9874025 97.3137373,97.3137373 C86.9874025,107.640072 72.7630474,114 57,114 C41.2711458,114 27.0125975,107.605879 16.6862627,97.3137373 C6.35992801,86.9874025 0,72.7630474 0,57 C0,41.2711458 6.39412118,27.0125975 16.6862627,16.6862627 C27.0125975,6.35992801 41.2369526,0 57,0 Z M86.6454709,38.6040792 C84.4571086,39.5956809 82.1319736,40.2111578 79.670066,40.5188962 C82.2003599,39.0143971 84.115177,36.6208758 85.0383923,33.7828434 C82.6790642,35.184763 80.0803839,36.1763647 77.3107379,36.7234553 C75.0881824,34.3641272 71.9424115,32.8938212 68.4205159,32.8938212 C61.6844631,32.8938212 56.2477504,38.3305339 56.2477504,45.0665867 C56.2477504,46.0239952 56.3503299,46.9472106 56.5554889,47.8362328 C46.4343131,47.3233353 37.4757049,42.4679064 31.4919016,35.1163767 C30.4319136,36.9628074 29.8506299,39.0827834 29.8506299,41.2369526 C29.8506299,45.4427115 32.004799,49.169766 35.2531494,51.3581284 C33.269946,51.2897421 31.3893221,50.7426515 29.7480504,49.8536293 L29.7480504,49.9904019 C29.7480504,55.8716257 33.9538092,60.7954409 39.5272945,61.9238152 C38.5014997,62.1973605 37.4415117,62.3683263 36.3131374,62.3683263 C35.5266947,62.3683263 34.7744451,62.29994 34.0221956,62.1631674 C35.595081,66.9844031 40.0743851,70.5062987 45.3743251,70.6088782 C41.2027594,73.8914217 35.9712058,75.8062388 30.2609478,75.8062388 C29.2693461,75.8062388 28.3119376,75.7378524 27.3545291,75.6352729 C32.7570486,79.0887822 39.1511698,81.1061788 46.0239952,81.1061788 C68.3863227,81.1061788 80.6616677,62.5734853 80.6616677,46.4685063 C80.6616677,45.9214157 80.6616677,45.4085183 80.6274745,44.8956209 C83.0209958,43.1859628 85.0725855,41.0659868 86.6796641,38.6040792 L86.6454709,38.6040792 Z M94.3731254,19.6268746 C84.7990402,10.0527894 71.6004799,4.13737253 57,4.13737253 C42.3995201,4.13737253 29.1667666,10.0527894 19.6268746,19.6268746 C10.0527894,29.2009598 4.13737253,42.3995201 4.13737253,57 C4.13737253,71.6004799 10.0527894,84.8332334 19.6268746,94.3731254 C29.2009598,103.947211 42.3995201,109.862627 57,109.862627 C71.6004799,109.862627 84.8332334,103.947211 94.3731254,94.3731254 C103.947211,84.7990402 109.862627,71.6004799 109.862627,57 C109.862627,42.3995201 103.947211,29.1667666 94.3731254,19.6268746 Z" id="Shape"></path>
            </g>
        </g>
    </g>
</svg>